<svg xmlns="http://www.w3.org/2000/svg" viewBox="0 0 1600 1000" role="img" aria-labelledby="title desc">
  <title id="title">MailPin brand system</title><desc id="desc">MailPin logo, palette, typography and UI motifs.</desc>
  <rect width="1600" height="1000" fill="#F7F5F0"/>
  <g font-family="Inter,Segoe UI,system-ui,sans-serif">
    <text x="72" y="70" font-size="18" font-weight="700" letter-spacing="2" fill="#3D536B">MAILPIN BRAND SYSTEM</text>
    <line x1="72" y1="92" x2="1528" y2="92" stroke="#D7D3CA"/>
    <g transform="translate(80 155)">
      <g transform="scale(1.15)"><path fill="none" stroke="#1A1D21" stroke-width="8" stroke-linecap="round" stroke-linejoin="round" d="M16 53v51c0 5 4 8 9 8h78c5 0 9-3 9-8V53L78 79c-8 6-20 6-28 0L16 53Z"/><path fill="none" stroke="#1A1D21" stroke-width="8" stroke-linecap="round" stroke-linejoin="round" d="m18 55 37 30c5 4 13 4 18 0l37-30"/><path fill="#4F7F75" fill-rule="evenodd" d="M64 8c-19 0-34 15-34 34 0 25 34 59 34 59s34-34 34-59C98 23 83 8 64 8Zm0 18a16 16 0 1 0 0 32 16 16 0 0 0 0-32Z"/></g>
      <text x="185" y="90" font-size="92" font-weight="650" fill="#1A1D21">MailPin</text>
      <text x="189" y="138" font-size="28" fill="#3D536B">Email Follow-up &amp; Productivity for Thunderbird</text>
    </g>
    <line x1="72" y1="350" x2="1528" y2="350" stroke="#D7D3CA"/>
    <text x="72" y="405" font-size="18" font-weight="700" letter-spacing="2" fill="#3D536B">PALETTE</text>
    <g transform="translate(72 445)">
      <g><rect width="240" height="118" rx="8" fill="#1A1D21"/><text y="150" font-size="18" fill="#1A1D21">Ink Charcoal · #1A1D21</text></g>
      <g transform="translate(278)"><rect width="240" height="118" rx="8" fill="#3D536B"/><text y="150" font-size="18" fill="#1A1D21">Slate Blue · #3D536B</text></g>
      <g transform="translate(556)"><rect width="240" height="118" rx="8" fill="#4F7F75"/><text y="150" font-size="18" fill="#1A1D21">Sage Teal · #4F7F75</text></g>
      <g transform="translate(834)"><rect width="240" height="118" rx="8" fill="#C79A3A"/><text y="150" font-size="18" fill="#1A1D21">Brass · #C79A3A</text></g>
      <g transform="translate(1112)"><rect width="240" height="118" rx="8" fill="#FFFFFF" stroke="#D7D3CA"/><text y="150" font-size="18" fill="#1A1D21">Warm White · #F7F5F0</text></g>
    </g>
    <line x1="72" y1="660" x2="1528" y2="660" stroke="#D7D3CA"/>
    <text x="72" y="715" font-size="18" font-weight="700" letter-spacing="2" fill="#3D536B">TYPE &amp; PRODUCT MOTIFS</text>
    <text x="72" y="815" font-size="76" font-weight="650" fill="#1A1D21">Aa</text>
    <text x="205" y="780" font-size="34" font-weight="650" fill="#1A1D21">System UI / Segoe UI Variable</text>
    <text x="205" y="820" font-size="22" fill="#5F696E">Readable. Calm. Intentional. Local-first.</text>
    <g transform="translate(860 735)">
      <rect width="610" height="150" rx="16" fill="#FFFFFF" stroke="#D7D3CA" stroke-width="2"/>
      <circle cx="48" cy="48" r="20" fill="#4F7F75"/><text x="88" y="55" font-size="24" font-weight="650" fill="#1A1D21">Follow up</text>
      <rect x="88" y="78" width="150" height="44" rx="22" fill="#F7F5F0" stroke="#C79A3A"/><text x="120" y="107" font-size="17" font-weight="600" fill="#9A6E17">Tomorrow</text>
      <rect x="280" y="31" width="285" height="88" rx="12" fill="#EEF3F1"/><text x="305" y="66" font-size="19" fill="#1A1D21">Notes · Tasks · Calendar</text><text x="305" y="95" font-size="17" fill="#3D536B">Focused follow-up workflow</text>
    </g>
    <text x="72" y="950" font-size="21" fill="#3D536B">No gradients · no remote assets · restrained color · strong contrast · Thunderbird-native geometry</text>
  </g>
</svg>
